<svg width="25" height="22" viewBox="0 0 25 22" fill="none" xmlns="http://www.w3.org/2000/svg">
<path d="M23.9434 16.9355C24.123 16.5762 23.8984 16.2617 23.6289 16.2168C20.4844 15.7227 19.0918 12.4883 19.002 12.3535C18.8223 11.9941 18.8223 11.7246 18.9121 11.5C19.0918 11.0957 19.7656 10.8711 20.1699 10.7363C20.3047 10.6914 20.4395 10.6465 20.5293 10.6016C21.293 10.2871 21.6973 9.92773 21.6973 9.47852C21.6523 9.16406 21.4277 8.84961 20.9785 8.66992C20.709 8.58008 20.3496 8.58008 20.0801 8.66992C19.6758 8.84961 19.3613 8.93945 19.0469 8.98438C18.8672 8.93945 18.7324 8.89453 18.6875 8.84961C18.7773 7.23242 19.002 4.94141 18.418 3.63867C17.3398 1.21289 15.0938 0 12.7129 0C12.668 0 12.3086 0 12.2637 0C11.3203 0 8.13086 0.269531 6.60352 3.68359C6.01953 4.94141 6.24414 7.27734 6.33398 8.84961C6.24414 8.89453 6.10938 8.98438 5.88477 8.98438C5.57031 8.98438 5.25586 8.89453 4.85156 8.66992C4.3125 8.44531 3.45898 8.80469 3.36914 9.38867C3.2793 9.70312 3.45898 10.1973 4.49219 10.6016C4.89648 10.7812 5.88477 10.9609 6.10938 11.5C6.19922 11.7246 6.19922 11.9941 6.01953 12.3535C5.92969 12.4883 4.53711 15.7227 1.39258 16.2168C1.16797 16.2617 0.988281 16.4863 0.988281 16.7109H1.0332C1.07812 17.6543 3.14453 18.0137 4.08789 18.1934C4.17773 18.2832 4.26758 18.8223 4.40234 19.2715C4.44727 19.4512 4.58203 19.6758 4.94141 19.6758C5.30078 19.6758 5.83984 19.4512 6.69336 19.4512C7.86133 19.4512 8.26562 19.7207 9.20898 20.3945C9.88281 20.8438 11.0508 21.6973 12.4883 21.6074C13.8809 21.6523 14.8242 21.0684 15.8125 20.3945C16.7559 19.7207 17.1602 19.4512 18.3281 19.4512C19.2266 19.4512 19.6758 19.6309 20.0801 19.6309C20.3945 19.6309 20.5742 19.4961 20.6191 19.2266C20.7539 18.8223 20.8438 18.2832 20.9336 18.1484C22.7305 17.8789 23.7188 17.4746 23.9434 16.9355Z" fill="#2C2C2B"/>
</svg>
