<svg width="21" height="21" viewBox="0 0 21 21" fill="none" xmlns="http://www.w3.org/2000/svg">
<path d="M10.085 4.87402C7.20996 4.87402 4.91895 7.20996 4.91895 10.04C4.91895 12.915 7.20996 15.2061 10.085 15.2061C12.915 15.2061 15.251 12.915 15.251 10.04C15.251 7.20996 12.915 4.87402 10.085 4.87402ZM10.085 13.4092C8.24316 13.4092 6.71582 11.9268 6.71582 10.04C6.71582 8.19824 8.19824 6.71582 10.085 6.71582C11.9268 6.71582 13.4092 8.19824 13.4092 10.04C13.4092 11.9268 11.9268 13.4092 10.085 13.4092ZM16.6436 4.69434C16.6436 4.02051 16.1045 3.48145 15.4307 3.48145C14.7568 3.48145 14.2178 4.02051 14.2178 4.69434C14.2178 5.36816 14.7568 5.90723 15.4307 5.90723C16.1045 5.90723 16.6436 5.36816 16.6436 4.69434ZM20.0576 5.90723C19.9678 4.29004 19.6084 2.85254 18.4404 1.68457C17.2725 0.516602 15.835 0.157227 14.2178 0.0673828C12.5557 -0.0224609 7.56934 -0.0224609 5.90723 0.0673828C4.29004 0.157227 2.89746 0.516602 1.68457 1.68457C0.516602 2.85254 0.157227 4.29004 0.0673828 5.90723C-0.0224609 7.56934 -0.0224609 12.5557 0.0673828 14.2178C0.157227 15.835 0.516602 17.2275 1.68457 18.4404C2.89746 19.6084 4.29004 19.9678 5.90723 20.0576C7.56934 20.1475 12.5557 20.1475 14.2178 20.0576C15.835 19.9678 17.2725 19.6084 18.4404 18.4404C19.6084 17.2275 19.9678 15.835 20.0576 14.2178C20.1475 12.5557 20.1475 7.56934 20.0576 5.90723ZM17.9014 15.9697C17.5869 16.8682 16.8682 17.542 16.0146 17.9014C14.667 18.4404 11.5225 18.3057 10.085 18.3057C8.60254 18.3057 5.45801 18.4404 4.15527 17.9014C3.25684 17.542 2.58301 16.8682 2.22363 15.9697C1.68457 14.667 1.81934 11.5225 1.81934 10.04C1.81934 8.60254 1.68457 5.45801 2.22363 4.11035C2.58301 3.25684 3.25684 2.58301 4.15527 2.22363C5.45801 1.68457 8.60254 1.81934 10.085 1.81934C11.5225 1.81934 14.667 1.68457 16.0146 2.22363C16.8682 2.53809 17.542 3.25684 17.9014 4.11035C18.4404 5.45801 18.3057 8.60254 18.3057 10.04C18.3057 11.5225 18.4404 14.667 17.9014 15.9697Z" fill="#2C2C2B"/>
</svg>
