<?xml version="1.0" encoding="UTF-8"?> <svg xmlns="http://www.w3.org/2000/svg" width="215" height="35" viewBox="0 0 215 35" fill="none"><path d="M16.5838 0C17.0669 0 17.55 0 18.0331 0C18.0894 0.0142068 18.141 0.0284135 18.1973 0.0331491C18.6476 0.0757694 19.0978 0.108918 19.5481 0.16101C20.5096 0.274664 21.4524 0.48303 22.3764 0.7719C27.5686 2.382 31.7102 6.34568 33.5817 11.4791C33.9663 12.5304 34.243 13.6101 34.4212 14.7135C34.5338 15.4285 34.6182 16.1436 34.6182 16.8682C34.6182 16.9439 34.6417 17.0197 34.6511 17.0955C34.6511 17.3654 34.6511 17.6353 34.6511 17.9053C34.6417 17.9668 34.6182 18.0236 34.6182 18.0852C34.6089 18.2888 34.6182 18.4925 34.6042 18.6914C34.5573 19.3307 34.4822 19.9605 34.3743 20.5903C34.0976 22.1625 33.6145 23.6732 32.9203 25.1081C31.5179 28.011 29.4823 30.3551 26.8135 32.1309C24.3323 33.7837 21.6025 34.7118 18.6382 34.9486C17.7001 35.0244 16.7574 35.0149 15.8193 34.9297C14.9422 34.8539 14.0745 34.7166 13.2208 34.4987C9.94695 33.6795 7.12805 32.0457 4.80632 29.5737C1.82795 26.4151 0.242605 22.6361 0.0221587 18.2794C-0.0481966 16.9345 0.0503008 15.599 0.29889 14.2778C0.69757 12.1515 1.44334 10.1578 2.58309 8.3299C4.98456 4.47986 8.35223 1.90844 12.6861 0.648775C13.5585 0.397789 14.445 0.222573 15.3456 0.132596C15.7067 0.0947117 16.0726 0.0710338 16.4384 0.0378847C16.49 0.0284135 16.5369 0.0142068 16.5838 0ZM12.2452 12.483C12.2358 12.5825 12.2265 12.6535 12.2265 12.7245C12.2171 13.5485 12.2077 14.3772 12.203 15.2012C12.1936 16.9723 12.1889 18.7482 12.1796 20.5193C12.1749 21.5943 12.2171 22.6693 12.3437 23.7395C12.4422 24.5587 12.5782 25.3733 12.794 26.1736C13.0426 27.1065 13.4131 27.9873 13.9713 28.7829C15.0266 30.2888 16.3915 31.4253 18.0613 32.1736C18.4506 32.3488 18.8586 32.4814 19.2573 32.6329C19.3464 32.6661 19.4074 32.6471 19.4309 32.595C19.459 32.524 19.4168 32.4766 19.3652 32.4388C19.2901 32.3819 19.2198 32.3251 19.1447 32.2683C18.6335 31.8989 18.1645 31.4774 17.7376 31.0086C16.8277 30.0094 16.2273 28.8539 15.9741 27.5138C15.8568 26.8934 15.7864 26.273 15.7583 25.6432C15.7208 24.8003 15.6692 23.9621 15.6457 23.1191C15.6176 22.2099 15.6082 21.3007 15.5988 20.3914C15.5895 18.9613 15.5941 17.5311 15.5941 16.1057C15.5941 14.9929 15.5941 13.88 15.5941 12.7671C15.5941 12.7056 15.5848 12.644 15.5801 12.5635C14.4638 12.5398 13.3662 12.5114 12.2452 12.483ZM5.60837 12.2746C5.64121 12.2841 5.65059 12.2936 5.65997 12.2936C5.72094 12.2794 5.78192 12.2652 5.8382 12.251C7.10929 11.9195 8.39914 11.6827 9.70775 11.5548C10.3316 11.4933 10.9601 11.4649 11.5886 11.4696C12.6205 11.4791 13.657 11.4933 14.6889 11.5264C15.2987 11.5454 15.9131 11.588 16.5181 11.6495C17.2498 11.7253 17.9722 11.8579 18.6945 12.0094C20.3689 12.3646 22.0012 12.8619 23.5865 13.5059C24.412 13.8421 25.1859 14.2636 25.8895 14.8224C26.6493 15.4238 27.2403 16.1578 27.5827 17.0765C27.8219 17.7253 27.9016 18.3835 27.7562 19.0655C27.6155 19.7237 27.2872 20.2825 26.8229 20.7608C26.3398 21.2628 25.8004 21.6937 25.1953 22.0394C24.1447 22.6408 23.0659 23.1996 21.973 23.7205C21.049 24.161 20.0781 24.3693 19.0603 24.3741C18.7742 24.3741 18.5115 24.2983 18.3052 24.0805C18.2864 24.0615 18.2676 24.0473 18.2348 24.0236C18.0707 24.1752 17.8924 24.3125 17.7611 24.4877C17.6485 24.6345 17.6907 24.7529 17.8737 24.8003C18.0003 24.8334 18.1363 24.8571 18.2676 24.8524C18.61 24.8381 18.9571 24.8239 19.2995 24.7813C20.0265 24.6866 20.7348 24.5019 21.4289 24.2746C23.4036 23.6258 25.2047 22.6361 26.8979 21.4333C27.4092 21.0686 27.8735 20.6472 28.2581 20.1499C29.0883 19.0655 29.3134 17.8721 28.8491 16.5698C28.5677 15.7837 28.0939 15.1349 27.4748 14.5856C26.7572 13.9463 25.9411 13.468 25.0687 13.0844C24.0227 12.6203 22.9392 12.2557 21.8417 11.9384C20.2095 11.4696 18.5491 11.1618 16.8605 11.0008C16.2086 10.9392 15.5566 10.9013 14.9047 10.8776C14.2011 10.854 13.4929 10.8587 12.7893 10.8729C11.945 10.8871 11.1008 10.9297 10.2612 11.0197C9.77341 11.0718 9.29031 11.1192 8.8072 11.1949C8.13648 11.3038 7.47045 11.4364 6.80442 11.5596C6.63556 11.5927 6.47609 11.6495 6.33538 11.7443C6.11493 11.8958 5.89449 12.0473 5.67404 12.1989C5.65059 12.2273 5.63652 12.2462 5.60837 12.2746ZM15.5754 9.99682C15.5801 9.85949 15.5895 9.75531 15.5895 9.65586C15.5895 7.37804 15.5895 5.10496 15.5895 2.82714C15.5895 2.75611 15.5895 2.68034 15.5848 2.60931C15.5707 2.41041 15.4441 2.3157 15.2564 2.382C15.1673 2.41041 15.0782 2.46724 15.0032 2.5288C14.112 3.25335 13.2255 3.98263 12.339 4.70244C12.2124 4.80662 12.1561 4.92501 12.1561 5.09075C12.1561 6.64403 12.1561 8.1973 12.1561 9.75531C12.1561 9.81213 12.1608 9.86423 12.1655 9.93999C13.3053 9.9542 14.4309 9.97314 15.5754 9.99682Z" fill="#2C2C2B"></path><path d="M58.9706 10.0963C59.6694 10.4846 60.2088 11.0244 60.5887 11.7206C60.9734 12.4167 61.161 13.2218 61.161 14.1263C61.161 15.0307 60.964 15.8311 60.5747 16.513C60.1854 17.1949 59.6319 17.7253 58.919 18.1041C58.206 18.483 57.3852 18.6724 56.4565 18.6724H52.4979C52.4369 18.6724 52.4088 18.7008 52.4088 18.7624V25.2123C52.4088 25.3638 52.3337 25.4396 52.1836 25.4396H50.4716C50.3215 25.4396 50.2465 25.3638 50.2465 25.2123V9.7411C50.2465 9.58956 50.3215 9.51379 50.4716 9.51379H56.5457C57.465 9.51379 58.2717 9.70795 58.9706 10.0963ZM58.2483 16.1483C58.7501 15.6511 59.0034 14.9881 59.0034 14.1736C59.0034 13.3401 58.7501 12.6724 58.2483 12.161C57.7464 11.6543 57.0804 11.3986 56.2548 11.3986H52.4979C52.4369 11.3986 52.4088 11.427 52.4088 11.4885V16.8066C52.4088 16.8682 52.4369 16.8966 52.4979 16.8966H56.2548C57.0804 16.8966 57.7464 16.6503 58.2483 16.1483Z" fill="#2C2C2B"></path><path d="M68.2293 25.2123V9.76478C68.2293 9.61324 68.3044 9.53747 68.4545 9.53747H70.1665C70.3166 9.53747 70.3916 9.61324 70.3916 9.76478V25.2123C70.3916 25.3638 70.3166 25.4396 70.1665 25.4396H68.4545C68.2997 25.4396 68.2293 25.3638 68.2293 25.2123Z" fill="#2C2C2B"></path><path d="M80.7714 24.9992C79.9412 24.5682 79.2939 23.9526 78.8389 23.157C78.3793 22.3614 78.1541 21.4475 78.1541 20.4198V14.5335C78.1541 13.5059 78.384 12.6014 78.8389 11.82C79.2939 11.0387 79.9412 10.4325 80.7714 10.0016C81.6062 9.57062 82.5584 9.35278 83.6419 9.35278C84.7253 9.35278 85.6728 9.56115 86.4983 9.97788C87.3238 10.3946 87.9664 10.9818 88.4213 11.7395C88.881 12.4972 89.1061 13.3733 89.1061 14.3772V14.4009C89.1061 14.4767 89.0827 14.5382 89.0404 14.5809C88.9935 14.6282 88.9419 14.6472 88.881 14.6472L87.169 14.7371C87.0189 14.7371 86.9438 14.6708 86.9438 14.5335V14.4672C86.9438 13.4964 86.6437 12.7198 86.0433 12.1278C85.4429 11.5359 84.6409 11.2423 83.6372 11.2423C82.6334 11.2423 81.8267 11.5359 81.2169 12.1278C80.6072 12.7198 80.307 13.5012 80.307 14.4672V20.5098C80.307 21.4806 80.6119 22.2573 81.2169 22.8492C81.822 23.4411 82.6287 23.7348 83.6372 23.7348C84.6456 23.7348 85.4429 23.4411 86.0433 22.8492C86.6437 22.2573 86.9438 21.4806 86.9438 20.5098V20.4625C86.9438 20.3251 87.0189 20.2588 87.169 20.2588L88.881 20.3488C89.0311 20.3488 89.1061 20.4246 89.1061 20.5761C89.1061 21.5753 88.8763 22.4561 88.4213 23.2233C87.9664 23.9905 87.3238 24.5824 86.4983 25.0086C85.6728 25.4348 84.7206 25.6432 83.6419 25.6432C82.5631 25.6432 81.6015 25.4301 80.7714 24.9992Z" fill="#2C2C2B"></path><path d="M106.77 9.76478V11.2186C106.77 11.3701 106.695 11.4459 106.545 11.4459H102.225C102.164 11.4459 102.136 11.4743 102.136 11.5359V25.2123C102.136 25.3638 102.061 25.4396 101.911 25.4396H100.199C100.049 25.4396 99.9737 25.3638 99.9737 25.2123V11.5359C99.9737 11.4743 99.9455 11.4459 99.8846 11.4459H95.7664C95.6163 11.4459 95.5413 11.3701 95.5413 11.2186V9.76478C95.5413 9.61324 95.6163 9.53747 95.7664 9.53747H106.545C106.695 9.53747 106.77 9.61324 106.77 9.76478Z" fill="#2C2C2B"></path><path d="M116.437 24.9755C115.607 24.5445 114.955 23.9289 114.49 23.1333C114.026 22.3378 113.791 21.4238 113.791 20.3962V9.76478C113.791 9.61324 113.867 9.53747 114.017 9.53747H115.729C115.879 9.53747 115.954 9.61324 115.954 9.76478V20.4435C115.954 21.4285 116.263 22.2241 116.887 22.8303C117.511 23.4364 118.322 23.7395 119.331 23.7395C120.335 23.7395 121.146 23.4364 121.76 22.8303C122.375 22.2241 122.684 21.4285 122.684 20.4435V9.76478C122.684 9.61324 122.759 9.53747 122.91 9.53747H124.621C124.772 9.53747 124.847 9.61324 124.847 9.76478V20.3962C124.847 21.4238 124.617 22.3378 124.162 23.1333C123.707 23.9289 123.06 24.5398 122.229 24.9755C121.395 25.4064 120.433 25.6243 119.34 25.6243C118.233 25.6195 117.267 25.4064 116.437 24.9755Z" fill="#2C2C2B"></path><path d="M141.601 25.2786L138.449 18.4877C138.435 18.4404 138.402 18.4214 138.36 18.4214H135.119C135.058 18.4214 135.029 18.4498 135.029 18.5114V25.2123C135.029 25.3638 134.954 25.4396 134.804 25.4396H133.092C132.942 25.4396 132.867 25.3638 132.867 25.2123V9.76478C132.867 9.61324 132.942 9.53747 133.092 9.53747H139.148C140.048 9.53747 140.841 9.72689 141.521 10.1057C142.206 10.4846 142.731 11.015 143.106 11.6969C143.481 12.3788 143.669 13.1649 143.669 14.06C143.669 15.1207 143.397 16.0157 142.848 16.7498C142.299 17.4838 141.54 17.981 140.564 18.2367C140.503 18.2652 140.489 18.303 140.517 18.3504L143.782 25.1649C143.796 25.1933 143.805 25.2312 143.805 25.2786C143.805 25.3827 143.744 25.4396 143.627 25.4396H141.849C141.732 25.4396 141.647 25.3875 141.601 25.2786ZM135.034 11.5122V16.603C135.034 16.6645 135.062 16.6929 135.123 16.6929H138.88C139.678 16.6929 140.311 16.4562 140.794 15.9779C141.272 15.4996 141.516 14.8697 141.516 14.0789C141.516 13.2738 141.277 12.6345 140.794 12.1468C140.315 11.6637 139.678 11.4175 138.88 11.4175H135.123C135.062 11.4222 135.034 11.4554 135.034 11.5122Z" fill="#2C2C2B"></path><path d="M161.38 9.76478V11.2186C161.38 11.3701 161.305 11.4459 161.155 11.4459H156.835C156.774 11.4459 156.746 11.4743 156.746 11.5359V25.2123C156.746 25.3638 156.671 25.4396 156.521 25.4396H154.809C154.659 25.4396 154.583 25.3638 154.583 25.2123V11.5359C154.583 11.4743 154.555 11.4459 154.494 11.4459H150.376C150.226 11.4459 150.151 11.3701 150.151 11.2186V9.76478C150.151 9.61324 150.226 9.53747 150.376 9.53747H161.155C161.305 9.53747 161.38 9.61324 161.38 9.76478Z" fill="#2C2C2B"></path><path d="M177.538 9.53747H179.245C179.395 9.53747 179.471 9.61324 179.471 9.76478V25.2123C179.471 25.3638 179.395 25.4396 179.245 25.4396H177.538C177.388 25.4396 177.313 25.3638 177.313 25.2123V18.4641C177.313 18.4025 177.285 18.3741 177.224 18.3741H170.812C170.751 18.3741 170.723 18.4025 170.723 18.4641V25.2123C170.723 25.3638 170.648 25.4396 170.498 25.4396H168.786C168.636 25.4396 168.561 25.3638 168.561 25.2123V9.76478C168.561 9.61324 168.636 9.53747 168.786 9.53747H170.498C170.648 9.53747 170.723 9.61324 170.723 9.76478V16.3993C170.723 16.4609 170.751 16.4893 170.812 16.4893H177.224C177.285 16.4893 177.313 16.4609 177.313 16.3993V9.76478C177.313 9.61324 177.388 9.53747 177.538 9.53747Z" fill="#2C2C2B"></path><path d="M196.998 25.2596L196.187 22.603C196.173 22.5556 196.14 22.5367 196.098 22.5367H189.775C189.728 22.5367 189.7 22.5603 189.686 22.603L188.875 25.2596C188.828 25.3827 188.739 25.4396 188.603 25.4396H186.783C186.619 25.4396 186.558 25.3591 186.605 25.1886L191.534 9.71742C191.581 9.5943 191.67 9.53747 191.806 9.53747H194.058C194.194 9.53747 194.283 9.59903 194.33 9.71742L199.301 25.1886L199.325 25.2786C199.325 25.3827 199.259 25.4396 199.123 25.4396H197.28C197.134 25.4396 197.045 25.378 196.998 25.2596ZM190.263 20.7703C190.286 20.794 190.31 20.8034 190.343 20.8034H195.516C195.544 20.8034 195.573 20.794 195.596 20.7703C195.619 20.7466 195.619 20.7229 195.605 20.6898L192.998 12.2604C192.983 12.232 192.96 12.2131 192.932 12.2131C192.904 12.2131 192.88 12.2273 192.866 12.2604L190.254 20.6898C190.235 20.7229 190.24 20.7466 190.263 20.7703Z" fill="#2C2C2B"></path><path d="M215 9.76478V11.2186C215 11.3701 214.925 11.4459 214.775 11.4459H210.455C210.394 11.4459 210.366 11.4743 210.366 11.5359V25.2123C210.366 25.3638 210.291 25.4396 210.141 25.4396H208.433C208.283 25.4396 208.208 25.3638 208.208 25.2123V11.5359C208.208 11.4743 208.18 11.4459 208.119 11.4459H204.001C203.851 11.4459 203.776 11.3701 203.776 11.2186V9.76478C203.776 9.61324 203.851 9.53747 204.001 9.53747H214.78C214.925 9.53747 215 9.61324 215 9.76478Z" fill="#2C2C2B"></path></svg> 