<svg width="213" height="54" viewBox="0 0 213 54" fill="none" xmlns="http://www.w3.org/2000/svg">
<path d="M70.2619 42.5346C72.3159 43.9675 73.4449 42.9913 74.8874 40.9601C72.6295 40.4248 71.2654 40.6295 70.2619 42.5346ZM209.468 26.0807C209.342 26.0492 209.217 26.0492 209.091 26.0492C202.082 25.7973 195.074 25.5611 188.065 25.3249C186.904 25.2934 185.76 25.3249 184.145 25.3249C184.897 24.6163 185.242 24.2542 185.619 23.955C189.899 20.6642 194.18 17.3892 198.445 14.0984C199.495 13.2954 200.906 12.6183 200.216 10.7919C198.476 9.59521 196.845 10.4297 195.246 11.1225C189.727 13.5001 184.16 15.8147 178.704 18.3654C174.517 20.3178 170.064 21.7507 166.442 24.8525C164.545 26.4743 162.13 26.742 159.7 26.742C152.424 26.7577 145.149 26.805 137.889 26.805C136.933 26.805 135.992 26.616 135.035 26.5215C134.957 26.1909 134.863 25.876 134.784 25.5453C136.603 24.5219 138.516 23.6244 140.241 22.4435C141.982 21.2468 144.396 20.806 145.807 17.7198C144.098 18.1292 143.016 18.208 142.123 18.6488C140.445 19.4991 138.767 20.4123 137.293 21.546C130.614 26.7262 122.852 28.0803 114.714 28.1906C114.165 28.1906 113.617 27.9544 112.394 27.6552C114.291 26.1909 115.686 25.1832 116.988 24.0653C120.045 21.4673 123.213 18.9637 126.004 16.1138C127.917 14.1456 129.485 11.7838 130.833 9.40626C131.852 7.59553 130.833 6.41463 128.826 6.82401C127.979 6.99721 127.117 7.31212 126.396 7.76874C124.059 9.23306 121.755 10.7131 119.512 12.3192C112.456 17.342 105.4 22.3647 98.4229 27.4663C96.4002 28.9463 94.2677 29.5762 91.806 29.7808C81.4573 30.6626 71.1243 31.6703 60.7756 32.615C59.725 32.7095 58.6588 32.6308 57.5925 32.6308C60.0386 29.8281 62.6728 27.608 65.4638 25.5611C66.7496 24.6163 68.2235 23.7976 69.7444 23.3095C78.9328 20.3493 87.1804 15.6415 94.9576 10.0361C97.2783 8.35132 99.4734 6.43037 101.496 4.39921C102.123 3.7694 102.515 2.00591 102.108 1.43907C101.512 0.604564 100.038 -0.0724893 99.003 0.00623782C97.3096 0.163692 95.5848 0.793509 94.0168 1.54929C86.616 5.1235 80.3127 10.3195 74.0094 15.4997C70.9204 18.0348 67.9256 21.1681 64.3192 22.475C57.3574 25.01 49.9094 25.6241 42.4458 25.1674C40.8151 25.073 39.2785 24.6006 38.3063 23.2307C39.059 20.491 41.4109 22.0813 43.1985 21.42C41.4266 19.7195 39.6391 19.7825 37.9927 20.3021C37.0676 20.6013 35.923 21.5617 35.7348 22.4277C35.5467 23.2622 36.2209 24.6006 36.9422 25.2619C38.7611 26.9309 41.0817 27.7024 43.5434 27.5607C47.5261 27.3403 51.5088 26.9152 55.4914 26.553C56.9967 26.4113 58.549 25.6398 60.2895 26.9467C58.5177 28.4267 56.9967 29.7021 55.4758 30.9775C53.1081 32.9614 50.4896 34.1423 47.3536 34.5202C43.2612 35.0241 39.2158 35.9688 35.1547 36.7403C34.1669 36.9293 33.132 37.0552 32.2539 37.4961C31.5483 37.8425 30.6232 38.5511 30.5605 39.1809C30.4978 39.7792 31.3131 40.6767 31.956 41.1018C32.8341 41.6844 33.9317 41.9363 35.5937 42.6134C33.4299 43.5896 31.9403 44.5658 30.2939 44.9437C25.2921 46.0931 20.2588 47.0536 15.2099 48.0141C12.4973 48.5337 9.75333 48.9115 7.0564 47.8723C4.9553 47.0693 2.52492 46.597 2.3838 43.6841C2.24268 40.8971 4.21834 39.4171 6.20969 38.0472C6.80552 37.6378 7.66791 37.6693 8.32647 37.3544C8.85958 37.0867 9.29862 36.6144 10.0826 35.9688C5.15913 35.7169 1.16077 38.4566 0.172943 42.3457C-0.375852 44.4871 0.392461 46.6442 2.32108 47.9511C4.54762 49.4469 6.96232 50.3286 9.70629 50.3759C19.5532 50.5176 28.82 48.2975 37.6478 43.9517C39.5137 43.0385 41.5991 42.3142 43.6532 42.0623C53.0924 40.8971 62.5631 39.9209 72.018 38.9289C76.4868 38.4566 80.9712 38.0629 85.4556 37.6851C85.7065 37.6693 85.9888 38.0472 86.7257 38.5511C85.1891 39.2911 84.0288 39.9209 82.8057 40.4405C81.7709 40.8814 80.6733 41.1491 79.6384 41.5742C79.3719 41.6844 79.2464 42.141 78.9485 42.5976C79.6855 43.1487 80.3597 43.6368 81.1437 44.2352C80.9085 44.928 80.7203 45.6522 80.4067 46.3136C78.337 50.9742 83.0409 55.005 86.9766 53.7769C88.5289 53.2888 90.1439 52.9424 91.6021 52.2496C96.118 50.0925 100.618 47.8723 105.04 45.5105C107.078 44.4241 108.944 43.5109 111.406 44.1407C112.645 44.4556 114.165 44.1249 115.467 43.7313C119.183 42.6134 122.852 41.338 126.537 40.1098C127.791 39.7005 129.03 39.2753 130.253 38.866C132.182 43.8573 133.703 44.613 138.438 43.2432C139.034 43.07 139.63 42.8496 140.194 42.5661C143.926 40.7869 147.642 38.9604 151.374 37.2127C152.252 36.8033 153.224 36.6301 154.29 36.2995C155.858 39.9366 158.539 40.0311 161.597 39.0077C162.898 38.5668 164.2 38.0787 165.548 37.7795C168.465 37.134 171.397 36.5042 174.345 36.0475C176.697 35.6854 179.08 35.6224 181.448 35.3862C183.988 35.15 186.512 34.8824 189.037 34.6304C188.755 35.4492 188.347 35.7011 187.923 35.7799C185.101 36.3782 182.247 36.8348 179.472 37.5591C177.794 38 176.054 38.5668 174.658 39.5273C172.4 41.0703 172.698 43.4794 175.27 44.4241C179.378 45.9357 183.596 47.1481 187.798 48.4392C188.237 48.5809 188.802 48.3132 189.303 48.2345C189.35 47.9511 189.397 47.6677 189.444 47.3842C184.991 45.6365 180.538 43.873 175.944 42.078C178.155 40.2358 179.456 39.606 182.467 38.9762C186.763 38.0787 191.075 37.3072 195.356 36.3152C196.312 36.0948 197.833 35.2445 197.88 34.5989C198.006 32.552 199.401 32.5206 200.703 32.2529C203.776 31.6231 206.865 31.1192 209.922 30.4107C211.161 30.1272 213.105 30.0958 212.996 28.285C212.839 26.3641 210.91 26.3798 209.468 26.0807ZM76.9258 15.6887C81.8493 12.0043 86.7414 8.27259 91.7589 4.72987C94.9733 2.46252 96.7922 2.10038 100.054 2.39954C95.428 8.71346 80.736 17.8143 72.4727 19.3574C74.2759 17.8616 75.546 16.7121 76.9258 15.6887ZM140.131 28.9621C138.579 31.4026 136.964 32.001 135.067 32.0167C132.088 32.0482 129.108 32.0324 125.8 32.0324C129.892 27.7497 134.816 29.5762 140.131 28.9621ZM127.87 9.9731C125.972 13.2167 123.699 15.8147 121.049 17.9875C117.38 20.9949 113.507 23.7661 109.697 26.6003C107.407 28.3008 104.742 28.6787 101.386 28.8046C104.287 25.073 124.122 11.0753 127.87 9.9731ZM99.5832 32.2686C98.1877 32.9299 96.7922 33.5912 94.9106 34.473C96.4315 31.8435 96.4315 31.8435 99.5832 32.2686ZM35.6251 39.2124C38.3691 38.677 41.1287 38.1574 43.8727 37.6221C41.505 39.9996 38.7767 40.6452 35.6251 39.2124ZM73.5076 36.5829C67.6747 37.1969 61.8418 37.811 55.9932 38.4251C53.2806 38.7085 50.568 39.0077 47.1498 39.3856C50.1603 35.9373 53.5785 35.6539 56.9026 35.276C66.4673 34.2211 76.0321 33.2448 85.5968 32.3001C87.5097 32.1112 89.454 32.2686 91.6805 32.2686C91.022 34.3313 89.8146 34.8351 88.4191 34.9926C83.4486 35.5594 78.4781 36.0633 73.5076 36.5829ZM108.144 40.8341C107.58 41.4797 106.953 42.1725 106.216 42.5661C101.339 45.1326 96.4629 47.7149 91.5081 50.1082C89.9558 50.8482 88.1683 51.2261 86.4435 51.4308C83.1664 51.8087 81.4259 49.3209 82.8998 46.4238C84.1072 44.0462 85.8006 42.141 88.1683 40.6924C93.813 37.2599 99.9438 35.9216 106.435 35.8901C108.427 35.8743 110.418 35.8901 112.347 35.8901C110.888 37.6221 109.54 39.2596 108.144 40.8341ZM101.527 33.9219C107.815 29.4817 114.338 30.5524 120.673 30.3004C118.822 32.2529 116.721 33.418 114.134 33.5125C110.151 33.6227 106.169 33.7644 101.527 33.9219ZM113.366 41.5427C120.108 34.5517 123.464 33.544 132.668 34.9453C126.129 38.3936 120.077 40.8499 113.366 41.5427ZM135.459 41.3695C133.734 41.6214 132.95 40.3618 133.781 38.6613C135.129 35.9058 137.403 34.1423 140.445 33.733C142.279 33.4968 144.161 33.6857 146.623 33.6857C144.381 39.1179 140.163 40.6767 135.459 41.3695ZM143.941 31.0877C145.117 28.8519 145.117 28.8519 149.884 28.6629C152.064 28.5842 154.243 28.4582 157.254 28.3165C152.644 31.5286 148.442 31.5916 143.941 31.0877ZM157.912 36.7246C157.74 35.0871 158.492 34.1581 159.857 33.8904C161.33 33.607 162.428 34.284 163.212 35.8743C161.409 36.7088 159.841 37.5591 157.912 36.7246ZM164.717 30.4894C168.041 26.9467 171.977 28.8519 175.803 28.285C173.576 31.5758 169.954 32.2529 164.717 30.4894ZM175.74 26.0019C174.062 25.8602 172.353 25.9705 170.66 25.9705C170.597 25.6713 170.55 25.3879 170.487 25.0887C178.484 21.2468 186.481 17.4049 194.462 13.5631L194.791 14.0039C194.242 14.6023 193.756 15.2951 193.129 15.7989C189.868 18.3497 186.512 20.7902 183.329 23.4197C181.071 25.2777 178.672 26.2539 175.74 26.0019ZM177.496 31.6546C178.61 29.6549 179.801 28.4897 181.557 28.4267C190.056 28.1433 198.57 27.9701 207.069 27.7812C207.366 27.7812 207.664 28.1118 208.731 28.7259C198.147 31.3082 188.237 33.0244 177.496 31.6546Z" fill="#2C2C2B"/>
</svg>
