<svg width="21" height="20" viewBox="0 0 21 20" fill="none" xmlns="http://www.w3.org/2000/svg">
<path d="M17.9526 2.94643C16.1222 1.07143 13.6222 0 10.9436 0C5.49721 0 1.03292 4.46429 1.03292 9.91072C1.03292 11.6964 1.524 13.3929 2.37221 14.8661L0.988281 20L6.2115 18.6607C7.68471 19.4196 9.29185 19.8661 10.9436 19.8661C16.4347 19.8661 20.9883 15.4018 20.9883 9.95536C20.9883 7.27679 19.8276 4.82143 17.9526 2.94643ZM10.9436 18.1696C9.47042 18.1696 8.04185 17.7679 6.74721 17.0089L6.47935 16.8304L3.35435 17.6786L4.20257 14.6429L3.97935 14.3304C3.17578 12.9911 2.72935 11.4732 2.72935 9.91072C2.72935 5.40179 6.43471 1.69643 10.9883 1.69643C13.1758 1.69643 15.2294 2.54464 16.7919 4.10714C18.3544 5.66964 19.2919 7.72321 19.2919 9.95536C19.2919 14.4643 15.4972 18.1696 10.9436 18.1696ZM15.4972 12.0089C15.2294 11.875 14.024 11.2946 13.8008 11.2054C13.5776 11.1161 13.399 11.0714 13.2204 11.3393C13.0865 11.5625 12.5954 12.1429 12.4615 12.3214C12.2829 12.4554 12.149 12.5 11.9258 12.3661C10.4526 11.6518 9.51507 11.0714 8.53292 9.41964C8.26507 8.97322 8.80078 9.01786 9.24721 8.08036C9.3365 7.90179 9.29185 7.76786 9.24721 7.63393C9.20257 7.5 8.66685 6.29464 8.48828 5.80357C8.26507 5.3125 8.0865 5.35714 7.90792 5.35714C7.774 5.35714 7.59542 5.35714 7.4615 5.35714C7.28292 5.35714 7.01507 5.40179 6.79185 5.66964C6.56864 5.9375 5.94364 6.51786 5.94364 7.72321C5.94364 8.97322 6.79185 10.1339 6.92578 10.3125C7.05971 10.4464 8.66685 12.9464 11.1669 14.0179C12.7294 14.7321 13.3544 14.7768 14.1579 14.6429C14.6044 14.5982 15.5865 14.0625 15.8097 13.4821C16.0329 12.9018 16.0329 12.4107 15.9436 12.3214C15.899 12.1875 15.7204 12.1429 15.4972 12.0089Z" fill="#2C2C2B"/>
</svg>
