<svg width="26" height="18" viewBox="0 0 26 18" fill="none" xmlns="http://www.w3.org/2000/svg">
<path d="M25.0215 2.74023C24.752 1.66211 23.8984 0.808594 22.8652 0.539062C20.9336 0 13.2969 0 13.2969 0C13.2969 0 5.61523 0 3.68359 0.539062C2.65039 0.808594 1.79688 1.66211 1.52734 2.74023C0.988281 4.62695 0.988281 8.66992 0.988281 8.66992C0.988281 8.66992 0.988281 12.668 1.52734 14.5996C1.79688 15.6777 2.65039 16.4863 3.68359 16.7559C5.61523 17.25 13.2969 17.25 13.2969 17.25C13.2969 17.25 20.9336 17.25 22.8652 16.7559C23.8984 16.4863 24.752 15.6777 25.0215 14.5996C25.5605 12.668 25.5605 8.66992 25.5605 8.66992C25.5605 8.66992 25.5605 4.62695 25.0215 2.74023ZM10.7812 12.3086V5.03125L17.1602 8.66992L10.7812 12.3086Z" fill="#2C2C2B"/>
</svg>
